# xmcd CD database file generated by OrangeCD 6.4
#
# Track frame offsets:
#	150
#	11225
#	22690
#	36432
#	47320
#	61817
#	77561
#	90463
#	104216
#	117099
#	126450
#	140311
#	149452
#	161265
#	170866
#	184185
#	196924
#	206875
#	219310
#	229503
#	239081
#	250877
#
# Disc length: 3474 seconds
#
# Revision: 1
# Processed by: cddbd v1.5.2PL0 Copyright (c) Steve Scherf et al.
# Submitted via: OrangeCD 6.4
#
DISCID=370d9016
DTITLE=Rosco Gordon - I'm Gonna Shake It! (The Sun Recordings)
DYEAR=2002
DGENRE=R&B
TTITLE0=T-Model Boogie
TTITLE1=Decorate The Counter
TTITLE2=I Wade Through Muddy Water
TTITLE3=Just Love Me Baby
TTITLE4=Weeping Blues
TTITLE5=Tired of Living
TTITLE6=The Chicken (Dance With You)
TTITLE7=Love For You Baby
TTITLE8=That's What You Do To
TTITLE9=Love With Me Baby
TTITLE10=I Found A New Love
TTITLE11=I'm Gonna Shake It
TTITLE12=Let's Get High
TTITLE13=Real Pretty Mama
TTITLE14=Shoobie Oobie
TTITLE15=Cheese and Crackers
TTITLE16=I Don't Like It
TTITLE17=Nineteen Years
TTITLE18=If You Don't Love Me Baby
TTITLE19=Sally Jo
TTITLE20=Bop With Me Baby
TTITLE21=New Orleans, LA
EXTD=
EXTT0=
EXTT1=
EXTT2=
EXTT3=
EXTT4=
EXTT5=
EXTT6=
EXTT7=
EXTT8=
EXTT9=
EXTT10=
EXTT11=
EXTT12=
EXTT13=
EXTT14=
EXTT15=
EXTT16=
EXTT17=
EXTT18=
EXTT19=
EXTT20=
EXTT21=
PLAYORDER=
